<svg width="64" height="64" viewBox="0 0 64 64" fill="none" xmlns="http://www.w3.org/2000/svg">
<path d="M40.0859 23.1894L38.7909 20.6015C38.4034 19.8262 37.7745 19.1973 36.9991 18.8097L34.4112 17.5147C34.2419 17.4297 34.1348 17.2561 34.1348 17.0668C34.1348 16.8772 34.2419 16.7036 34.4112 16.6186L36.9991 15.3236C37.7744 14.9365 38.4033 14.3076 38.7909 13.5318L40.0859 10.9439C40.1709 10.7747 40.3445 10.6679 40.5337 10.6679C40.7234 10.6679 40.897 10.7747 40.9819 10.9439L42.2769 13.5318C42.6641 14.3075 43.293 14.9364 44.0688 15.3236L46.6567 16.6186C46.8259 16.7036 46.9327 16.8772 46.9327 17.0668C46.9327 17.2561 46.8259 17.4297 46.6567 17.5147L44.0688 18.8097C43.293 19.1972 42.6641 19.8261 42.2769 20.6015L40.9819 23.1894C40.8969 23.3587 40.7234 23.4658 40.5337 23.4658C40.3445 23.4658 40.1709 23.3587 40.0859 23.1894Z" fill="#FF6F32"/>
</svg>
