<svg width="44" height="44" viewBox="0 0 44 44" fill="none" xmlns="http://www.w3.org/2000/svg">
<g clip-path="url(#clip0_16_183)">
<path d="M23.154 11.0273C22.6826 10.0808 21.3219 10.0716 20.846 11.0273L11.8225 29.1601C11.6178 29.5714 11.6475 30.0604 11.9004 30.444L16.8437 37.9413V42.711C16.8437 43.4229 17.4209 44 18.1328 44H25.8671C26.579 44 27.1562 43.4229 27.1562 42.711V37.9413L32.0995 30.444C32.3524 30.0604 32.3821 29.5714 32.1774 29.1601L23.154 11.0273ZM24.5781 41.4219H19.4218V38.8438H24.5781V41.4219ZM25.1731 36.2657H18.8269L14.4613 29.6443L20.7109 17.0854V29.7344C20.7109 30.4463 21.288 31.0235 22 31.0235C22.7119 31.0235 23.289 30.4463 23.289 29.7344V17.0854L29.5387 29.6443L25.1731 36.2657Z" fill="black"/>
<path d="M40.1328 0C38.4523 0 37.0195 1.07774 36.4873 2.57812H25.8672V1.28906C25.8672 0.577156 25.29 0 24.5781 0H19.4219C18.71 0 18.1328 0.577156 18.1328 1.28906V2.57812H7.51266C6.98053 1.07774 5.5477 0 3.86719 0C1.73482 0 0 1.73482 0 3.86719C0 5.99955 1.73482 7.73438 3.86719 7.73438C5.5477 7.73438 6.98053 6.65577 7.51266 5.15539H12.3349C6.32818 8.60501 2.57812 14.9778 2.57812 21.9141C2.57812 22.626 3.15528 23.2031 3.86719 23.2031C4.57909 23.2031 5.15625 22.626 5.15625 21.9141C5.15625 14.1364 10.639 7.37172 18.1328 5.60467V6.44531C18.1328 7.15722 18.71 7.73438 19.4219 7.73438H24.5781C25.29 7.73438 25.8672 7.15722 25.8672 6.44531V5.60459C33.361 7.37172 38.8438 14.1364 38.8438 21.9141C38.8438 22.626 39.4209 23.2031 40.1328 23.2031C40.8447 23.2031 41.4219 22.626 41.4219 21.9141C41.4219 14.9866 37.6793 8.61016 31.6651 5.15625H36.4873C37.0195 6.65663 38.4523 7.73438 40.1328 7.73438C42.2652 7.73438 44 5.99955 44 3.86719C44 1.73482 42.2652 0 40.1328 0ZM3.86719 5.15625C3.1564 5.15625 2.57812 4.57798 2.57812 3.86719C2.57812 3.1564 3.1564 2.57812 3.86719 2.57812C4.57798 2.57812 5.15625 3.1564 5.15625 3.86719C5.15625 4.57798 4.57798 5.15625 3.86719 5.15625ZM23.2891 5.15625H20.7109V2.57812H23.2891V5.15625ZM40.1328 5.15625C39.422 5.15625 38.8438 4.57798 38.8438 3.86719C38.8438 3.1564 39.422 2.57812 40.1328 2.57812C40.8436 2.57812 41.4219 3.1564 41.4219 3.86719C41.4219 4.57798 40.8436 5.15625 40.1328 5.15625Z" fill="black"/>
</g>
<defs>
<clipPath id="clip0_16_183">
<rect width="44" height="44" fill="white"/>
</clipPath>
</defs>
</svg>
